# xmcd
#
# Track frame offsets: 
#        182
#        12535
#        26917
#        36797
#        53382
#        66252
#        78647
#        91847
#        105312
#        119647
#        129205
#        145655
#        158617
#        170447
#        181857
#        194232
#        210920
#        224010
#
# Disc length: 3147 seconds
#
# Revision: 1
# Processed by: cddbd v1.5.1PL0 Copyright (c) Steve Scherf et al.
# Submitted via: ExactAudioCopy v0.95b3
#
DISCID=f70c4912
DTITLE=Merle Haggard - The Very Best Of
DYEAR=1994
DGENRE=Country
TTITLE0=I Take A Lot Of Pride In What I Am
TTITLE1=I'm A Lonesome Fugitive
TTITLE2=Mama Tried
TTITLE3=Daddy Frank (The Guitar Man)
TTITLE4=Sing Me Back Home
TTITLE5=Workin' Man Blues
TTITLE6=Kentucky Gambler
TTITLE7=Holding Things Together
TTITLE8=Branded Man
TTITLE9=Legend Of Bonnie And Clyde
TTITLE10=Mama's Hungry Eyes
TTITLE11=Swingin' Doors
TTITLE12=Carolyn
TTITLE13=Strangers
TTITLE14=The Bottle Let Me Down
TTITLE15=I Think I'll Just Stay Here And Drink
TTITLE16=The Fightin' Side Of Me
TTITLE17=Okie From Muskogee
EXTD=
EXTT0=
EXTT1=
EXTT2=
EXTT3=
EXTT4=
EXTT5=
EXTT6=
EXTT7=
EXTT8=
EXTT9=
EXTT10=
EXTT11=
EXTT12=
EXTT13=
EXTT14=
EXTT15=
EXTT16=
EXTT17=
PLAYORDER=
